# xmcd
#
# Track frame offsets: 
#        150
#        26390
#        48821
#        71481
#        94549
#        109542
#        126041
#        142398
#        163589
#        184605
#        205468
#        225653
#        249927
#        268652
#        285361
#        302767
#        327869
#
# Disc length: 4733 seconds
#
# Revision: 1
# Processed by: cddbd v1.5.1PL0 Copyright (c) Steve Scherf et al.
# Submitted via: ExactAudioCopy v0.95b2
#
DISCID=e5127b11
DTITLE=Teddy Pendergrass - The Love Songs Collection
DYEAR=2003
DGENRE=R&B
TTITLE0=Come Go with Me
TTITLE1=When Somebody Loves You Back
TTITLE2=Love T.K.O.
TTITLE3=Can't We Try
TTITLE4=I Miss You (Part 1)
TTITLE5=Turn Off the Light
TTITLE6=Close the Door
TTITLE7=Do Me
TTITLE8=Is It Still Good to You
TTITLE9=All I Need Is You
TTITLE10=The More I Get, The More I Want
TTITLE11=You're My Latest, Greatest Inspiration
TTITLE12=Heaven Only Knows
TTITLE13=The Love I Lost (single version)
TTITLE14=Only to You
TTITLE15=It's You I Know
TTITLE16=It's Time for Love
EXTD=Compliation
EXTT0=
EXTT1=
EXTT2=
EXTT3=
EXTT4=with Harold Melvin and the Blue Notes
EXTT5=
EXTT6=
EXTT7=
EXTT8=
EXTT9=
EXTT10=
EXTT11=
EXTT12=
EXTT13=with Harold Melvin and the Blue Notes
EXTT14=
EXTT15=
EXTT16=
PLAYORDER=
